# xmcd CD database file
#
# Track frame offsets:
#	150
#	16630
#	32372
#	53320
#	71667
#	88180
#	107067
#	125290
#	143900
#	164107
#	183392
#	199612
#
# Disc length: 2918 seconds
#
# Revision: 2
# Processed by: cddbd v1.4PL0 Copyright (c) Steve Scherf et al.
# Submitted via: CDex 1.40Release
#
DISCID=980b640c
DTITLE=Michelle Wright - Shut Up and Kiss Me
DYEAR=2002
DGENRE=Country
TTITLE0=I Surrender
TTITLE1=Shut Up and Kiss Me
TTITLE2=Still No Shangri-la
TTITLE3=Broken
TTITLE4=Every Time You Come Around
TTITLE5=Find It In New York
TTITLE6=Thank You For Your Love
TTITLE7=Love Is The Only Way
TTITLE8=Could You Be
TTITLE9=Sorry
TTITLE10=I Will Be There
TTITLE11=Circle Of Life
EXTD=YEAR: 2002 ID3G: 2
EXTT0=
EXTT1=
EXTT2=
EXTT3=
EXTT4=
EXTT5=
EXTT6=
EXTT7=
EXTT8=
EXTT9=
EXTT10=
EXTT11=
PLAYORDER=
